<svg width="43" height="43" viewBox="0 0 43 43" fill="none" xmlns="http://www.w3.org/2000/svg">
<path d="M40.6111 20.0428C41.055 19.7121 41.3843 19.2507 41.5528 18.7234C41.7213 18.1961 41.7206 17.6293 41.5507 17.1024C41.3808 16.5756 41.0502 16.1151 40.6054 15.7856C40.1606 15.4561 39.6238 15.274 39.0703 15.265L28.3203 14.8589C28.2674 14.8552 28.2168 14.8364 28.1744 14.8046C28.132 14.7728 28.0997 14.7294 28.0814 14.6797L24.3667 4.64639C24.18 4.13593 23.841 3.69515 23.3956 3.38374C22.9502 3.07232 22.4198 2.9053 21.8763 2.9053C21.3328 2.9053 20.8024 3.07232 20.3569 3.38374C19.9115 3.69515 19.5725 4.13593 19.3858 4.64639L15.6831 14.7156C15.6648 14.7653 15.6325 14.8086 15.5901 14.8404C15.5477 14.8722 15.497 14.8911 15.4442 14.8947L4.69418 15.3008C4.14068 15.3099 3.60389 15.4919 3.15907 15.8214C2.71426 16.1509 2.38372 16.6114 2.21381 17.1383C2.0439 17.6651 2.04314 18.2319 2.21163 18.7592C2.38012 19.2865 2.70942 19.7479 3.15335 20.0786L11.5861 26.7078C11.6283 26.741 11.6599 26.7858 11.6769 26.8368C11.6938 26.8877 11.6955 26.9426 11.6817 26.9944L8.77918 37.2786C8.62877 37.8023 8.64334 38.3596 8.82091 38.8747C8.99848 39.3899 9.33042 39.8378 9.77158 40.1576C10.2127 40.4773 10.7417 40.6534 11.2865 40.6619C11.8313 40.6704 12.3655 40.5109 12.8164 40.205L21.727 34.2328C21.7709 34.2025 21.8229 34.1862 21.8763 34.1862C21.9296 34.1862 21.9817 34.2025 22.0256 34.2328L30.9361 40.205C31.3809 40.5213 31.9132 40.6913 32.459 40.6913C33.0049 40.6913 33.5371 40.5213 33.982 40.205C34.4232 39.8882 34.7555 39.4425 34.933 38.9292C35.1106 38.4158 35.1247 37.86 34.9733 37.3383L32.047 27.0183C32.0315 26.9665 32.0323 26.9112 32.0494 26.8599C32.0665 26.8086 32.099 26.7638 32.1425 26.7317L40.6111 20.0428Z" fill="#FFDD2B"/>
</svg>
