<svg width="47" height="47" viewBox="0 0 47 47" fill="none" xmlns="http://www.w3.org/2000/svg">
<path d="M37.2083 5.87498H29.0225C28.2 3.60331 26.0458 1.95831 23.5 1.95831C20.9542 1.95831 18.8 3.60331 17.9775 5.87498H9.79167C7.6375 5.87498 5.875 7.63748 5.875 9.79165V37.2083C5.875 39.3625 7.6375 41.125 9.79167 41.125H37.2083C39.3625 41.125 41.125 39.3625 41.125 37.2083V9.79165C41.125 7.63748 39.3625 5.87498 37.2083 5.87498ZM23.5 5.87498C24.5771 5.87498 25.4583 6.75623 25.4583 7.83331C25.4583 8.9104 24.5771 9.79165 23.5 9.79165C22.4229 9.79165 21.5417 8.9104 21.5417 7.83331C21.5417 6.75623 22.4229 5.87498 23.5 5.87498ZM27.4167 33.2916H13.7083V29.375H27.4167V33.2916ZM33.2917 25.4583H13.7083V21.5416H33.2917V25.4583ZM33.2917 17.625H13.7083V13.7083H33.2917V17.625Z" fill="#D9B0FA"/>
</svg>
