<svg width="45" height="48" viewBox="0 0 45 48" fill="none" xmlns="http://www.w3.org/2000/svg">
<path d="M17.8125 24C21.9487 24 25.3125 20.412 25.3125 16C25.3125 11.588 21.9487 8 17.8125 8C13.6762 8 10.3125 11.588 10.3125 16C10.3125 20.412 13.6762 24 17.8125 24ZM20.625 26H15C8.79562 26 3.75 31.382 3.75 38V40H31.875V38C31.875 31.382 26.8294 26 20.625 26Z" fill="#72D4FE"/>
<path d="M31.1325 22.0959C32.2745 20.0201 32.7676 17.6106 32.5406 15.2159C32.205 11.6479 30.3375 8.49394 27.285 6.33594L25.2131 9.66794C27.3113 11.1519 28.5881 13.2659 28.8094 15.6159C28.9114 16.7081 28.7839 17.8109 28.4362 18.8439C28.0886 19.8769 27.5294 20.8144 26.7994 21.5879L24.5644 23.9719L27.5981 24.9219C35.5331 27.4019 35.625 35.9139 35.625 35.9999H39.375C39.375 32.4219 37.5825 25.4299 31.1325 22.0959Z" fill="#72D4FE"/>
</svg>
