<svg width="61" height="60" viewBox="0 0 61 60" fill="none" xmlns="http://www.w3.org/2000/svg">
<path d="M38.125 52.5H22.875V31.5C22.875 31.1022 23.0357 30.7206 23.3217 30.4393C23.6077 30.158 23.9955 30 24.4 30H36.6C37.0045 30 37.3923 30.158 37.6783 30.4393C37.9643 30.7206 38.125 31.1022 38.125 31.5V52.5Z" fill="#51C9DA" stroke="#503991" stroke-width="1.5" stroke-linecap="round" stroke-linejoin="round"/>
<path d="M51.85 52.5H38.125V45.25C38.125 44.8522 38.2857 44.4706 38.5717 44.1893C38.8577 43.908 39.2455 43.75 39.65 43.75H51.85C52.2545 43.75 52.6423 43.908 52.9283 44.1893C53.2143 44.4706 53.375 44.8522 53.375 45.25V51C53.375 51.3978 53.2143 51.7794 52.9283 52.0607C52.6423 52.342 52.2545 52.5 51.85 52.5Z" fill="#51C9DA" stroke="#503991" stroke-width="1.5" stroke-linecap="round" stroke-linejoin="round"/>
<path d="M22.875 52.5V40.2499C22.875 39.8521 22.7143 39.4706 22.4283 39.1893C22.1423 38.908 21.7545 38.7499 21.35 38.7499H9.15C8.74554 38.7499 8.35766 38.908 8.07166 39.1893C7.78567 39.4706 7.625 39.8521 7.625 40.2499V51C7.625 51.3978 7.78567 51.7793 8.07166 52.0606C8.35766 52.3419 8.74554 52.5 9.15 52.5H22.875Z" fill="#51C9DA" stroke="#503991" stroke-width="1.5" stroke-linecap="round" stroke-linejoin="round"/>
<path d="M27.4652 12.7825L29.7756 7.96498C29.838 7.82726 29.9396 7.71027 30.0682 7.62817C30.1967 7.54607 30.3467 7.50238 30.5 7.50238C30.6533 7.50238 30.8033 7.54607 30.9318 7.62817C31.0604 7.71027 31.162 7.82726 31.2244 7.96498L33.5373 12.7825L38.7019 13.56C39.3653 13.66 39.6296 14.5 39.1493 14.98L35.413 18.73L36.295 24.025C36.4068 24.705 35.7155 25.225 35.1207 24.9025L30.5 22.4025L25.8792 24.9025C25.287 25.2225 24.5931 24.705 24.705 24.025L25.5869 18.73L21.8507 14.98C21.3678 14.5 21.6346 13.66 22.2955 13.56L27.4652 12.785V12.7825Z" fill="#FFDD2B" stroke="#503991" stroke-width="1.5" stroke-linecap="round" stroke-linejoin="round"/>
</svg>
