<svg width="320" height="95" viewBox="0 0 320 95" fill="none" xmlns="http://www.w3.org/2000/svg">
<path d="M0 86.2185H320V86.2185C320 91.0684 316.068 95 311.218 95H8.78153C3.93163 95 0 91.0684 0 86.2185V86.2185Z" fill="white"/>
<path d="M35.08 51.144V16.2H24.84V61H51.08V51.144H35.08ZM63.5335 48.84H86.2535C86.5095 47.624 86.6375 46.344 86.6375 45C86.6375 35.336 79.7255 28.104 70.3815 28.104C60.2695 28.104 53.3575 35.464 53.3575 45C53.3575 54.536 60.1415 61.896 71.0855 61.896C77.1655 61.896 81.9015 59.656 85.0375 55.304L77.3575 50.888C76.0775 52.296 73.8375 53.32 71.2135 53.32C67.6935 53.32 64.7495 52.168 63.5335 48.84ZM63.3415 41.672C64.2375 38.408 66.6695 36.616 70.3175 36.616C73.1975 36.616 76.0775 37.96 77.1015 41.672H63.3415ZM115.002 29V32.008C112.89 29.576 109.754 28.104 105.466 28.104C97.082 28.104 90.17 35.464 90.17 45C90.17 54.536 97.082 61.896 105.466 61.896C109.754 61.896 112.89 60.424 115.002 57.992V61H124.602V29H115.002ZM107.386 52.808C102.97 52.808 99.77 49.8 99.77 45C99.77 40.2 102.97 37.192 107.386 37.192C111.802 37.192 115.002 40.2 115.002 45C115.002 49.8 111.802 52.808 107.386 52.808ZM141.245 34.696V29H131.645V61H141.245V46.536C141.245 40.2 146.877 38.6 150.845 39.24V28.36C146.813 28.36 142.525 30.408 141.245 34.696ZM174.085 28.104C169.861 28.104 166.661 29.64 164.933 32.008V29H155.333V61H164.933V43.528C164.933 38.984 167.365 36.936 170.885 36.936C173.957 36.936 176.453 38.792 176.453 42.76V61H186.053V41.352C186.053 32.712 180.549 28.104 174.085 28.104ZM218.565 37.768C222.021 35.912 224.325 32.328 224.325 27.976C224.325 21.512 219.077 16.2 212.549 16.2H194.693V61H214.021C220.805 61 226.245 55.56 226.245 48.776C226.245 43.656 223.045 39.496 218.565 37.768ZM212.549 19.4C217.157 19.4 220.933 23.24 220.933 27.976C220.933 32.712 217.157 36.552 212.549 36.552H198.085V19.4H212.549ZM214.021 57.8H198.085V39.752H214.021C218.885 39.752 222.853 43.784 222.853 48.776C222.853 53.768 218.885 57.8 214.021 57.8ZM248.584 61.704C257.864 61.704 265.352 54.472 265.352 45C265.352 35.528 257.864 28.296 248.584 28.296C239.24 28.296 231.752 35.528 231.752 45C231.752 54.472 239.24 61.704 248.584 61.704ZM248.584 58.632C240.968 58.632 235.016 52.616 235.016 45C235.016 37.384 240.968 31.368 248.584 31.368C256.2 31.368 262.088 37.384 262.088 45C262.088 52.616 256.2 58.632 248.584 58.632ZM297.037 61L284.301 44.488L296.269 29H292.429L282.317 41.992L272.269 29H268.365L280.397 44.552L267.597 61H271.501L282.317 47.048L293.133 61H297.037Z" fill="white"/>
</svg>
