<svg width="50" height="49" viewBox="0 0 50 49" fill="none" xmlns="http://www.w3.org/2000/svg">
<path fill-rule="evenodd" clip-rule="evenodd" d="M40.625 13.2708C39.7962 13.2708 39.0013 13.5935 38.4153 14.1678C37.8292 14.7421 37.5 15.5211 37.5 16.3333V18.375H43.75V16.3333C43.75 15.5211 43.4208 14.7421 42.8347 14.1678C42.2487 13.5935 41.4538 13.2708 40.625 13.2708ZM43.75 20.4166H37.5V37.2604L40.625 41.8541L43.75 37.2604V20.4166Z" fill="#40D8B3"/>
<path fill-rule="evenodd" clip-rule="evenodd" d="M6.25 9.1875V39.8125C6.25 40.6247 6.57924 41.4037 7.16529 41.978C7.75134 42.5523 8.5462 42.875 9.375 42.875H32.2917C33.1205 42.875 33.9153 42.5523 34.5014 41.978C35.0874 41.4037 35.4167 40.6247 35.4167 39.8125V9.1875C35.4167 8.37527 35.0874 7.59632 34.5014 7.02199C33.9153 6.44766 33.1205 6.125 32.2917 6.125H9.375C8.5462 6.125 7.75134 6.44766 7.16529 7.02199C6.57924 7.59632 6.25 8.37527 6.25 9.1875ZM20.8333 15.3125C20.8333 15.0418 20.9431 14.7821 21.1384 14.5907C21.3338 14.3992 21.5987 14.2917 21.875 14.2917H30.2083C30.4846 14.2917 30.7496 14.3992 30.9449 14.5907C31.1403 14.7821 31.25 15.0418 31.25 15.3125C31.25 15.5832 31.1403 15.8429 30.9449 16.0343C30.7496 16.2258 30.4846 16.3333 30.2083 16.3333H21.875C21.5987 16.3333 21.3338 16.2258 21.1384 16.0343C20.9431 15.8429 20.8333 15.5832 20.8333 15.3125ZM21.875 18.375C21.5987 18.375 21.3338 18.4826 21.1384 18.674C20.9431 18.8654 20.8333 19.1251 20.8333 19.3958C20.8333 19.6666 20.9431 19.9262 21.1384 20.1177C21.3338 20.3091 21.5987 20.4167 21.875 20.4167H30.2083C30.4846 20.4167 30.7496 20.3091 30.9449 20.1177C31.1403 19.9262 31.25 19.6666 31.25 19.3958C31.25 19.1251 31.1403 18.8654 30.9449 18.674C30.7496 18.4826 30.4846 18.375 30.2083 18.375H21.875ZM20.8333 28.5833C20.8333 28.3126 20.9431 28.0529 21.1384 27.8615C21.3338 27.6701 21.5987 27.5625 21.875 27.5625H30.2083C30.4846 27.5625 30.7496 27.6701 30.9449 27.8615C31.1403 28.0529 31.25 28.3126 31.25 28.5833C31.25 28.8541 31.1403 29.1137 30.9449 29.3052C30.7496 29.4966 30.4846 29.6042 30.2083 29.6042H21.875C21.5987 29.6042 21.3338 29.4966 21.1384 29.3052C20.9431 29.1137 20.8333 28.8541 20.8333 28.5833ZM21.875 31.6458C21.5987 31.6458 21.3338 31.7534 21.1384 31.9448C20.9431 32.1363 20.8333 32.3959 20.8333 32.6667C20.8333 32.9374 20.9431 33.1971 21.1384 33.3885C21.3338 33.58 21.5987 33.6875 21.875 33.6875H30.2083C30.4846 33.6875 30.7496 33.58 30.9449 33.3885C31.1403 33.1971 31.25 32.9374 31.25 32.6667C31.25 32.3959 31.1403 32.1363 30.9449 31.9448C30.7496 31.7534 30.4846 31.6458 30.2083 31.6458H21.875ZM12.5 28.5833V31.6458H15.625V28.5833H12.5ZM11.4583 26.5417H16.6667C16.9429 26.5417 17.2079 26.6492 17.4032 26.8407C17.5986 27.0321 17.7083 27.2918 17.7083 27.5625V32.6667C17.7083 32.9374 17.5986 33.1971 17.4032 33.3885C17.2079 33.58 16.9429 33.6875 16.6667 33.6875H11.4583C11.1821 33.6875 10.9171 33.58 10.7218 33.3885C10.5264 33.1971 10.4167 32.9374 10.4167 32.6667V27.5625C10.4167 27.2918 10.5264 27.0321 10.7218 26.8407C10.9171 26.6492 11.1821 26.5417 11.4583 26.5417ZM18.4448 16.0342C18.6345 15.8417 18.7395 15.5838 18.7372 15.3162C18.7348 15.0485 18.6252 14.7925 18.4321 14.6032C18.239 14.4139 17.9777 14.3066 17.7046 14.3042C17.4315 14.3019 17.1683 14.4048 16.9719 14.5908L13.5417 17.9524L12.1948 16.6324C11.9983 16.4465 11.7352 16.3436 11.4621 16.3459C11.189 16.3482 10.9277 16.4556 10.7346 16.6449C10.5414 16.8341 10.4319 17.0902 10.4295 17.3578C10.4271 17.6255 10.5321 17.8834 10.7219 18.0759L13.5417 20.8393L18.4448 16.0342Z" fill="#40D8B3"/>
</svg>
